{"title":"Winchester'73(1950)MPEG-4[DaScubaDude]","uid":15265736,"size":932960879,"categoryP":"video","categoryS":"movies","magnet":"?xt=urn:btih:28c6810913437a31bd764fd519d1f19a40bfa515&amp;dn=Winchester%2773%281950%29MPEG-4%5BDaScubaDude%5D&amp;tr=udp%3A%2F%2Ftracker.leechers-paradise.org%3A6969&amp;tr=udp%3A%2F%2Fzer0day.ch%3A1337&amp;tr=udp%3A%2F%2Fopen.demonii.com%3A1337&amp;tr=udp%3A%2F%2Ftracker.coppersurfer.tk%3A6969&amp;tr=udp%3A%2F%2Fexodus.desync.com%3A6969","seeders":1,"leechers":0,"uploader":"dascuba","files":1,"time":1468213283,"description":"Winchester '73 (1950)\r\nApproved | 1h 32min | Drama, Western | 12 July 1950 (USA)\r\nThe journey of a prized rifle from one ill-fated owner to another parallels a cowboy's search for a murderous fugitive.\r\nDirector: Anthony Mann\r\nWriters: Robert L. Richards (screenplay), Borden Chase (screenplay) |\r\nStars: James Stewart, Shelley Winters, Dan Duryea |\r\n\r\nGeneral\r\nComplete name                            : Winchester'73WINCHESTER_73_Title1.mp4\r\nFormat                                   : MPEG-4\r\nFormat profile                           : Base Media\r\nCodec ID                                 : isom (isom/iso2/avc1/mp41)\r\nFile size                                : 890 MiB\r\nDuration                                 : 1h 32mn\r\nOverall bit rate                         : 1 347 Kbps\r\nMovie name                               : WINCHESTER_73\r\nGenre                                    : Western\r\nWriting application                      : Lavf54.6.100\r\n\r\nVideo\r\nID                                       : 1\r\nFormat                                   : AVC\r\nFormat/Info                              : Advanced Video Codec\r\nFormat profile                           :   \r\nFormat settings, CABAC                   : No\r\nFormat settings, ReFrames                : 6 frames\r\nCodec ID                                 : avc1\r\nCodec ID/Info                            : Advanced Video Coding\r\nDuration                                 : 1h 32mn\r\nBit rate                                 : 1 202 Kbps\r\nWidth                                    : 720 pixels\r\nHeight                                   : 540 pixels\r\nDisplay aspect ratio                     : 4:3\r\nFrame rate mode                          : Constant\r\nFrame rate                               : 29.970 (30000/1001) fps\r\nColor space                              : YUV\r\nChroma subsampling                       : 4:2:0\r\nBit depth                                : 8 bits\r\nScan type                                : Progressive\r\nBits/(Pixel*Frame)                       : 0.103\r\nStream size                              : 794 MiB (89%)\r\n\r\nAudio\r\nID                                       : 2\r\nFormat                                   : AAC\r\nFormat/Info                              : Advanced Audio Codec\r\nFormat profile                           : LC\r\nCodec ID                                 : 40\r\nDuration                                 : 1h 32mn\r\nBit rate mode                            : Constant\r\nBit rate                                 : 138 Kbps\r\nChannel(s)                               : 2 channels\r\nChannel positions                        : Front: L R\r\nSampling rate                            : 44.1 KHz\r\nFrame rate                               : 43.066 fps (1024 spf)\r\nCompression mode                         : Lossy\r\nStream size                              : 91.3 MiB (10%)\r\nDefault                                  : Yes\r\nAlternate group                          : 1","torrent":{"xt":"urn:btih:28c6810913437a31bd764fd519d1f19a40bfa515","amp;dn":"Winchester%2773%281950%29MPEG-4%5BDaScubaDude%5D","amp;tr":["udp%3A%2F%2Ftracker.leechers-paradise.org%3A6969","udp%3A%2F%2Fzer0day.ch%3A1337","udp%3A%2F%2Fopen.demonii.com%3A1337","udp%3A%2F%2Ftracker.coppersurfer.tk%3A6969","udp%3A%2F%2Fexodus.desync.com%3A6969"],"infoHash":"28c6810913437a31bd764fd519d1f19a40bfa515","infoHashBuffer":{"type":"Buffer","data":[40,198,129,9,19,67,122,49,189,118,79,213,25,209,241,154,64,191,165,21]},"announce":[],"urlList":[]}}